<svg xmlns="http://www.w3.org/2000/svg" width="1811" height="2400" viewBox="0 0 1811 2400" fill="none">
  <style>
    .bg { fill: #04070b; }
    .txt {
      fill: #f5f7fa;
      font-family: "IBM Plex Mono", "SFMono-Regular", Menlo, Consolas, "Liberation Mono", monospace;
      letter-spacing: 0.2px;
    }
    .note { font-size: 17px; font-weight: 500; }
    .head { font-size: 15px; font-weight: 700; }
    .sect { font-size: 16px; font-weight: 700; }
    .row  { font-size: 15px; font-weight: 500; }
    .mark { font-size: 15px; font-weight: 500; text-anchor: middle; }
    .rule { stroke: #f5f7fa; stroke-width: 1.6; opacity: 0.9; }
    .rule-strong { stroke-width: 2.2; }
  </style>

  <rect class="bg" x="0" y="0" width="1811" height="2400" rx="36"/>

  <text class="txt note" x="905.5" y="76" text-anchor="middle">This comparison is based on Ghost ESP. It is not a complete feature list for Bruce or Marauder.</text>

  <text class="txt head" x="100" y="150">Feature</text>
  <text class="txt head" x="870" y="150" text-anchor="middle">Ghost ESP</text>
  <text class="txt head" x="1180" y="150" text-anchor="middle">Bruce</text>
  <text class="txt head" x="1510" y="150" text-anchor="middle">ESP32 Marauder</text>
  <line class="rule rule-strong" x1="100" y1="166" x2="1711" y2="166"/>

  <text class="txt sect" x="100" y="212">[WiFi]</text>
  <line class="rule" x1="100" y1="226" x2="1711" y2="226"/>

  <text class="txt row" x="100" y="258">Deauth / disassoc attacks</text>
  <text class="txt mark" x="870" y="258">[x]</text><text class="txt mark" x="1180" y="258">[x]</text><text class="txt mark" x="1510" y="258">[x]</text>
  <text class="txt row" x="100" y="290">Evil Portal</text>
  <text class="txt mark" x="870" y="290">[x]</text><text class="txt mark" x="1180" y="290">[x]</text><text class="txt mark" x="1510" y="290">[x]</text>
  <text class="txt row" x="100" y="322">Karma</text>
  <text class="txt mark" x="870" y="322">[x]</text>
  <text class="txt row" x="100" y="354">Beacon spam (single/list/random)</text>
  <text class="txt mark" x="870" y="354">[x]</text><text class="txt mark" x="1180" y="354">[x]</text><text class="txt mark" x="1510" y="354">[x]</text>
  <text class="txt row" x="100" y="386">AP / STA / All scans</text>
  <text class="txt mark" x="870" y="386">[x]</text><text class="txt mark" x="1180" y="386">[x]</text><text class="txt mark" x="1510" y="386">[x]</text>
  <text class="txt row" x="100" y="418">Network scanners (ARP/port/SSH)</text>
  <text class="txt mark" x="870" y="418">[x]</text><text class="txt mark" x="1180" y="418">[x]</text><text class="txt mark" x="1510" y="418">[x]</text>
  <text class="txt row" x="100" y="450">WiFi OUI vendor lookup</text>
  <text class="txt mark" x="870" y="450">[x]</text>
  <text class="txt row" x="100" y="482">WPA3 / SAE specific</text>
  <text class="txt mark" x="870" y="482">[x]</text><text class="txt mark" x="1510" y="482">[x]</text>
  <text class="txt row" x="100" y="514">DHCP starvation</text>
  <text class="txt mark" x="870" y="514">[x]</text>
  <text class="txt row" x="100" y="546">Handshake + PMKID capture</text>
  <text class="txt mark" x="870" y="546">[x]</text><text class="txt mark" x="1510" y="546">[x]</text>
  <text class="txt row" x="100" y="578">USB dongle mode (Wireshark)</text>
  <text class="txt mark" x="870" y="578">[x]</text>
  <text class="txt row" x="100" y="610">Sweep scan (WiFi/BLE/GPS/802.15.4 CSV)</text>
  <text class="txt mark" x="870" y="610">[x]</text>
  <text class="txt row" x="100" y="642">Split-channel wardrive helper (GhostLink)</text>
  <text class="txt mark" x="870" y="642">[x]</text>
  <text class="txt row" x="100" y="674">RSSI tracking for selected APs/stations</text>
  <text class="txt mark" x="870" y="674">[x]</text>
  <text class="txt row" x="100" y="706">Drone detection / spoofing</text>
  <text class="txt mark" x="870" y="706">[x]</text>

  <text class="txt sect" x="100" y="764">[BLE]</text>
  <line class="rule" x1="100" y1="778" x2="1711" y2="778"/>

  <text class="txt row" x="100" y="810">BLE scan</text>
  <text class="txt mark" x="870" y="810">[x]</text><text class="txt mark" x="1180" y="810">[x]</text><text class="txt mark" x="1510" y="810">[x]</text>
  <text class="txt row" x="100" y="842">BLE spam modes</text>
  <text class="txt mark" x="870" y="842">[x]</text><text class="txt mark" x="1180" y="842">[x]</text><text class="txt mark" x="1510" y="842">[x]</text>
  <text class="txt row" x="100" y="874">BLE wardrive</text>
  <text class="txt mark" x="870" y="874">[x]</text><text class="txt mark" x="1180" y="874">[x]</text><text class="txt mark" x="1510" y="874">[x]</text>
  <text class="txt row" x="100" y="906">AirTag scan / spoof</text>
  <text class="txt mark" x="870" y="906">[x]</text><text class="txt mark" x="1180" y="906">[x]</text><text class="txt mark" x="1510" y="906">[x]</text>
  <text class="txt row" x="100" y="938">Flipper finder</text>
  <text class="txt mark" x="870" y="938">[x]</text><text class="txt mark" x="1180" y="938">[x]</text><text class="txt mark" x="1510" y="938">[x]</text>
  <text class="txt row" x="100" y="970">GATT/service scan + per-device RSSI</text>
  <text class="txt mark" x="870" y="970">[x]</text>
  <text class="txt row" x="100" y="1002">BLE stream to Wireshark</text>
  <text class="txt mark" x="870" y="1002">[x]</text>
  <text class="txt row" x="100" y="1034">BLE skimmer detection</text>
  <text class="txt mark" x="870" y="1034">[x]</text>

  <text class="txt sect" x="100" y="1092">[NFC / RFID (HF)]</text>
  <line class="rule" x1="100" y1="1106" x2="1711" y2="1106"/>

  <text class="txt row" x="100" y="1138">PN532 NTAG/MIFARE Classic</text>
  <text class="txt mark" x="870" y="1138">[x]</text><text class="txt mark" x="1180" y="1138">[x]</text>
  <text class="txt row" x="100" y="1170">Flipper .nfc import/export</text>
  <text class="txt mark" x="870" y="1170">[x]</text><text class="txt mark" x="1180" y="1170">[x]</text>
  <text class="txt row" x="100" y="1202">Chameleon Ultra</text>
  <text class="txt mark" x="870" y="1202">[x]</text><text class="txt mark" x="1180" y="1202">[x]</text>
  <text class="txt row" x="100" y="1234">PM3 MIFARE Classic dict attack</text>
  <text class="txt mark" x="870" y="1234">[x]</text>
  <text class="txt row" x="100" y="1266">Flipper NFC parsers (transit/parking)</text>
  <text class="txt mark" x="870" y="1266">[x]</text>
  <text class="txt row" x="100" y="1298">MIFARE Desfire detection</text>
  <text class="txt mark" x="870" y="1298">[x]</text>

  <text class="txt sect" x="100" y="1356">[USB]</text>
  <line class="rule" x1="100" y1="1370" x2="1711" y2="1370"/>

  <text class="txt row" x="100" y="1402">USB keyboard host mode (ESP32-S3 builds)</text>
  <text class="txt mark" x="870" y="1402">[x]</text>
  <text class="txt row" x="100" y="1434">Remote keyboard control over GhostLink</text>
  <text class="txt mark" x="870" y="1434">[x]</text>
  <text class="txt row" x="100" y="1466">BadUSB</text>
  <text class="txt mark" x="870" y="1466">[x]</text><text class="txt mark" x="1180" y="1466">[x]</text>
  <text class="txt row" x="100" y="1498">BadUSB identity options (VID/PID/MFR/PROD/layout)</text>
  <text class="txt mark" x="870" y="1498">[x]</text>

  <text class="txt sect" x="100" y="1556">[IR]</text>
  <line class="rule" x1="100" y1="1570" x2="1711" y2="1570"/>

  <text class="txt row" x="100" y="1602">IR TX/RX on supported boards</text>
  <text class="txt mark" x="870" y="1602">[x]</text><text class="txt mark" x="1180" y="1602">[x]</text>
  <text class="txt row" x="100" y="1634">IR learn mode</text>
  <text class="txt mark" x="870" y="1634">[x]</text><text class="txt mark" x="1180" y="1634">[x]</text>
  <text class="txt row" x="100" y="1666">IR easy learn mode</text>
  <text class="txt mark" x="870" y="1666">[x]</text>
  <text class="txt row" x="100" y="1698">Flipper .ir file support</text>
  <text class="txt mark" x="870" y="1698">[x]</text>
  <text class="txt row" x="100" y="1730">Universal library transmit</text>
  <text class="txt mark" x="870" y="1730">[x]</text>
  <text class="txt row" x="100" y="1762">IR CLI tools</text>
  <text class="txt mark" x="870" y="1762">[x]</text>
  <text class="txt row" x="100" y="1794">IR Dazzler (38 kHz high duty)</text>
  <text class="txt mark" x="870" y="1794">[x]</text>

  <text class="txt sect" x="100" y="1852">[Dual communication]</text>
  <line class="rule" x1="100" y1="1866" x2="1711" y2="1866"/>

  <text class="txt row" x="100" y="1898">Dual-ESP command support</text>
  <text class="txt mark" x="870" y="1898">[x]</text>
  <text class="txt row" x="100" y="1930">WebUI dual-device control</text>
  <text class="txt mark" x="870" y="1930">[x]</text>
  <text class="txt row" x="100" y="1962">Dual-ESP display interface (GhostLink)</text>
  <text class="txt mark" x="870" y="1962">[x]</text>

  <text class="txt sect" x="100" y="2020">[Setup / UI]</text>
  <line class="rule" x1="100" y1="2034" x2="1711" y2="2034"/>

  <text class="txt row" x="100" y="2066">First-boot setup wizard (display builds)</text>
  <text class="txt mark" x="870" y="2066">[x]</text>
  <text class="txt row" x="100" y="2098">Wired screen mirroring (display builds)</text>
  <text class="txt mark" x="870" y="2098">[x]</text>
  <text class="txt sect" x="100" y="2156">[Ethernet]</text>
  <line class="rule" x1="100" y1="2170" x2="1711" y2="2170"/>

  <text class="txt row" x="100" y="2202">Scan ARP/port/SSH</text>
  <text class="txt mark" x="870" y="2202">[x]</text>
  <text class="txt row" x="100" y="2234">Ethernet fingerprint scan</text>
  <text class="txt mark" x="870" y="2234">[x]</text>
</svg>
